<svg width="148" height="19" viewBox="0 0 148 19" fill="none" xmlns="http://www.w3.org/2000/svg">
<path d="M56.7441 18.9845H54.7637V4.92033C54.7637 2.27669 56.853 0.127563 59.4231 0.127563H68.2006V2.16472H59.4231C57.9445 2.16472 56.7441 3.40257 56.7441 4.92033V18.9845Z" fill="#1A1757"/>
<path d="M103.094 18.9845V0H109.328C110.777 0 111.962 0.267474 112.884 0.802423C113.806 1.33737 114.49 2.05893 114.934 2.9671C115.379 3.87527 115.602 4.88918 115.602 6.00884C115.602 7.1285 115.382 8.14241 114.94 9.05991C114.499 9.9743 113.819 10.7021 112.899 11.2432C111.98 11.7844 110.804 12.055 109.368 12.055H104.899V10.0147H109.295C110.287 10.0147 111.082 9.83745 111.684 9.48601C112.286 9.13456 112.721 8.65559 112.996 8.05533C113.268 7.45196 113.407 6.77083 113.407 6.01195C113.407 5.25307 113.271 4.57194 112.996 3.97168C112.724 3.37142 112.283 2.90178 111.675 2.55967C111.067 2.21755 110.263 2.04649 109.259 2.04649H105.331V18.9907H103.097L103.094 18.9845Z" fill="#1A1757"/>
<path d="M118.697 18.9844V0H129.836V2.04027H120.932V8.45343H129.259V10.4937H120.932V16.9442H129.836V18.9844H118.697Z" fill="#1A1757"/>
<path d="M148 0V18.9844H145.838L135.781 4.08054H135.6V18.9844H133.365V0H135.527L145.62 14.9412H145.801V0H148Z" fill="#1A1757"/>
<path d="M0 2.04027V0H13.8421V2.04027H8.0398V18.9844H5.80534V2.04027H0Z" fill="#1A1757"/>
<path d="M16.2881 18.9844V0H18.5225V8.45343H28.3644V0H30.5989V18.9844H28.3644V10.4937H18.5225V18.9844H16.2881Z" fill="#1A1757"/>
<path d="M34.5596 18.9844V0H45.6986V2.04027H36.794V8.45343H45.1211V10.4937H36.794V16.9442H45.8407V18.9844H34.5596Z" fill="#1A1757"/>
<path d="M86.6486 19H80.9551V0.0155029H86.9025C88.6925 0.0155029 90.2255 0.394943 91.4984 1.15071C92.7714 1.90648 93.748 2.99193 94.4283 4.40395C95.1056 5.81596 95.4473 7.50478 95.4473 9.47041C95.4473 11.436 95.1056 13.1497 94.4192 14.5742C93.7329 15.9986 92.7381 17.0934 91.4259 17.8554C90.1166 18.6174 88.5232 19 86.6486 19ZM83.1895 16.9597H86.5064C88.0334 16.9597 89.2972 16.658 90.3011 16.0515C91.3049 15.445 92.0518 14.5835 92.5446 13.4639C93.0375 12.3442 93.2824 11.013 93.2824 9.47041C93.2824 7.92776 93.0375 6.61838 92.5537 5.50805C92.0669 4.39773 91.3412 3.54554 90.3737 2.94839C89.4061 2.35124 88.2027 2.05266 86.7604 2.05266H83.1926V16.9566L83.1895 16.9597Z" fill="#1A1757"/>
<path d="M75.3942 8.70532H63.1123V10.7425H75.3942V8.70532Z" fill="#D72128"/>
<path d="M78.4813 18.8662H66.1117V17.6533C66.1117 14.6924 64.3036 11.9959 61.6126 10.9415L60.001 10.3102V8.93549L61.8605 8.10818C64.4155 6.96986 66.0664 4.38532 66.0664 1.52085V0.12439H78.4813V2.16155H68.0226C67.811 5.27482 66.0815 8.06153 63.4419 9.57307C66.0361 11.0442 67.7868 13.7811 68.0559 16.8291H78.4813V18.8662Z" fill="#D72128"/>
</svg>
